# xmcd
#
# Track frame offsets:
#   150
#   17100
#   39001
#   66680
#   78018
#   95809
#   120258
#   142804
#   164369
#   193892
#   212249
#   224719
#
# Disc length: 3255 seconds
#
# Revision: 0
# Processed by: cddbd v1.5.1PL0 Copyright (c) Steve Scherf et al.
# Submitted via: uFREEDB 1.6.0
#
DISCID=ac0cb50c
DTITLE=Michael Paul Miller - Homeward
DYEAR=2002
DGENRE=Gospel and Religious
TTITLE0=I'll Be Walking Home Today
TTITLE1=We Could Walk On Water
TTITLE2=Salvation Drive
TTITLE3=Holes In The Wall
TTITLE4=Lonesome Town
TTITLE5=Hold Her When She Cries
TTITLE6=It All Means Nothing Without You
TTITLE7=Hate To Say Goodbye (For Jason)
TTITLE8=The Gospel According to Paul (For Paul Leroy Mille
TTITLE9=Magazines And Cigarettes
TTITLE10=Army Of The Lord
TTITLE11=Homeward Bound
EXTD=
EXTT0=
EXTT1=
EXTT2=
EXTT3=
EXTT4=
EXTT5=
EXTT6=
EXTT7=
EXTT8=
EXTT9=
EXTT10=
EXTT11=
PLAYORDER=
